<?xml version="1.0" encoding="UTF-8" standalone="no"?>
<!DOCTYPE svg PUBLIC "-//W3C//DTD SVG 1.1//EN"
 "http://www.w3.org/Graphics/SVG/1.1/DTD/svg11.dtd">
<!-- Generated by graphviz version 2.40.1 (20161225.0304)
 -->
<!-- Title: G Pages: 1 -->
<svg width="479pt" height="279pt"
 viewBox="0.00 0.00 479.08 279.00" xmlns="http://www.w3.org/2000/svg" xmlns:xlink="http://www.w3.org/1999/xlink">
<g id="graph0" class="graph" transform="scale(1 1) rotate(0) translate(4 275)">
<title>G</title>
<polygon fill="#ffffff" stroke="transparent" points="-4,4 -4,-275 475.0798,-275 475.0798,4 -4,4"/>
<g id="clust1" class="cluster">
<title>cluster_all</title>
<polygon fill="none" stroke="#000000" points="8,-8 8,-263 463.0798,-263 463.0798,-8 8,-8"/>
<text text-anchor="middle" x="107.3356" y="-248.2" font-family="Arial" font-size="12.00" fill="#000000">DEPLOYMENT OF THE SYSTEM</text>
</g>
<g id="clust2" class="cluster">
<title>cluster_n1</title>
<polygon fill="#f5deb3" stroke="#000000" points="16,-16 16,-233 129.6746,-233 129.6746,-16 16,-16"/>
<text text-anchor="middle" x="72.8373" y="-216.4" font-family="Arial" font-size="14.00" fill="#000000">&lt;&lt;device&gt;&gt;</text>
<text text-anchor="middle" x="72.8373" y="-199.6" font-family="Arial" font-size="14.00" fill="#000000">Intel&#45;i5</text>
</g>
<g id="clust3" class="cluster">
<title>cluster_n5</title>
<polygon fill="#f5deb3" stroke="#000000" points="185.6746,-122 185.6746,-233 292.3772,-233 292.3772,-122 185.6746,-122"/>
<text text-anchor="middle" x="239.0259" y="-216.4" font-family="Arial" font-size="14.00" fill="#000000">&lt;&lt;device&gt;&gt;</text>
<text text-anchor="middle" x="239.0259" y="-199.6" font-family="Arial" font-size="14.00" fill="#000000">Nvidia</text>
</g>
<g id="clust4" class="cluster">
<title>cluster_n7</title>
<polygon fill="#f5deb3" stroke="#000000" points="348.3772,-122 348.3772,-233 455.0798,-233 455.0798,-122 348.3772,-122"/>
<text text-anchor="middle" x="401.7285" y="-216.4" font-family="Arial" font-size="14.00" fill="#000000">&lt;&lt;device&gt;&gt;</text>
<text text-anchor="middle" x="401.7285" y="-199.6" font-family="Arial" font-size="14.00" fill="#000000">IBM&#45;Power</text>
</g>
<!-- dummy_n1 -->
<!-- dummy_n5 -->
<!-- dummy_n1&#45;&gt;dummy_n5 -->
<g id="edge1" class="edge">
<title>dummy_n1&#45;&gt;dummy_n5</title>
<path fill="none" stroke="#000000" d="M129.6707,-183C147.8052,-183 167.7996,-183 185.6776,-183"/>
</g>
<!-- n2 -->
<g id="node2" class="node">
<title>n2</title>
<polygon fill="#f0ffff" stroke="#000000" points="118.0404,-171.6019 27.6342,-171.6019 27.6342,-130.3981 118.0404,-130.3981 118.0404,-171.6019"/>
<text text-anchor="middle" x="72.8373" y="-155.2" font-family="Arial" font-size="14.00" fill="#000000">&lt;&lt;artifact&gt;&gt;</text>
<text text-anchor="middle" x="72.8373" y="-138.4" font-family="Arial" font-size="14.00" fill="#000000">Parse</text>
</g>
<!-- n3 -->
<g id="node3" class="node">
<title>n3</title>
<polygon fill="#f0ffff" stroke="#000000" points="118.0404,-118.6019 27.6342,-118.6019 27.6342,-77.3981 118.0404,-77.3981 118.0404,-118.6019"/>
<text text-anchor="middle" x="72.8373" y="-102.2" font-family="Arial" font-size="14.00" fill="#000000">&lt;&lt;artifact&gt;&gt;</text>
<text text-anchor="middle" x="72.8373" y="-85.4" font-family="Arial" font-size="14.00" fill="#000000">MLLearn</text>
</g>
<!-- n4 -->
<g id="node4" class="node">
<title>n4</title>
<polygon fill="#f0ffff" stroke="#000000" points="121.5124,-65.6019 24.1622,-65.6019 24.1622,-24.3981 121.5124,-24.3981 121.5124,-65.6019"/>
<text text-anchor="middle" x="72.8373" y="-49.2" font-family="Arial" font-size="14.00" fill="#000000">&lt;&lt;artifact&gt;&gt;</text>
<text text-anchor="middle" x="72.8373" y="-32.4" font-family="Arial" font-size="14.00" fill="#000000">MLPrediction</text>
</g>
<!-- dummy_n7 -->
<!-- dummy_n5&#45;&gt;dummy_n7 -->
<g id="edge2" class="edge">
<title>dummy_n5&#45;&gt;dummy_n7</title>
<path fill="none" stroke="#000000" d="M292.3758,-183C310.3517,-183 330.4051,-183 348.3808,-183"/>
</g>
<!-- n6 -->
<g id="node6" class="node">
<title>n6</title>
<polygon fill="#f0ffff" stroke="#000000" points="284.229,-171.6019 193.8228,-171.6019 193.8228,-130.3981 284.229,-130.3981 284.229,-171.6019"/>
<text text-anchor="middle" x="239.0259" y="-155.2" font-family="Arial" font-size="14.00" fill="#000000">&lt;&lt;artifact&gt;&gt;</text>
<text text-anchor="middle" x="239.0259" y="-138.4" font-family="Arial" font-size="14.00" fill="#000000">MLTrain</text>
</g>
<!-- n8 -->
<g id="node8" class="node">
<title>n8</title>
<polygon fill="#f0ffff" stroke="#000000" points="446.9316,-171.6019 356.5254,-171.6019 356.5254,-130.3981 446.9316,-130.3981 446.9316,-171.6019"/>
<text text-anchor="middle" x="401.7285" y="-155.2" font-family="Arial" font-size="14.00" fill="#000000">&lt;&lt;artifact&gt;&gt;</text>
<text text-anchor="middle" x="401.7285" y="-138.4" font-family="Arial" font-size="14.00" fill="#000000">MLSQL</text>
</g>
</g>
</svg>
